<mxfile host="app.diagrams.net" agent="Mozilla/5.0 (Macintosh; Intel Mac OS X 10_15_7) AppleWebKit/537.36 (KHTML, like Gecko) Chrome/135.0.0.0 Safari/537.36" version="26.2.14">
  <diagram name="Page-1" id="3wcn3eSIUHcrDZ13uMIT">
    <mxGraphModel dx="2032" dy="804" grid="1" gridSize="10" guides="1" tooltips="1" connect="1" arrows="1" fold="1" page="1" pageScale="1" pageWidth="827" pageHeight="1169" math="0" shadow="0">
      <root>
        <mxCell id="0" />
        <mxCell id="1" parent="0" />
        <mxCell id="xKF-eual7p8Pqb8pcDHl-140" value="" style="group" vertex="1" connectable="0" parent="1">
          <mxGeometry width="870" height="340" as="geometry" />
        </mxCell>
        <mxCell id="xKF-eual7p8Pqb8pcDHl-139" value="" style="rounded=0;whiteSpace=wrap;html=1;strokeColor=none;" vertex="1" parent="xKF-eual7p8Pqb8pcDHl-140">
          <mxGeometry width="870" height="340" as="geometry" />
        </mxCell>
        <mxCell id="xKF-eual7p8Pqb8pcDHl-16" value="" style="rounded=1;whiteSpace=wrap;html=1;fillColor=#F0F6FF;strokeColor=none;" vertex="1" parent="xKF-eual7p8Pqb8pcDHl-140">
          <mxGeometry x="140" y="20" width="310" height="300" as="geometry" />
        </mxCell>
        <mxCell id="xKF-eual7p8Pqb8pcDHl-59" value="" style="rounded=1;whiteSpace=wrap;html=1;fillColor=none;strokeColor=default;dashed=1;" vertex="1" parent="xKF-eual7p8Pqb8pcDHl-140">
          <mxGeometry x="170" y="130" width="260" height="180" as="geometry" />
        </mxCell>
        <mxCell id="xKF-eual7p8Pqb8pcDHl-4" value="" style="rounded=1;whiteSpace=wrap;html=1;fillColor=#F0F6FF;strokeColor=none;glass=0;" vertex="1" parent="xKF-eual7p8Pqb8pcDHl-140">
          <mxGeometry x="520" y="20" width="330" height="300" as="geometry" />
        </mxCell>
        <mxCell id="xKF-eual7p8Pqb8pcDHl-5" value="Kyma cluster" style="text;html=1;align=center;verticalAlign=middle;resizable=0;points=[];autosize=1;strokeColor=none;fillColor=none;fontStyle=1;fontSize=15;" vertex="1" parent="xKF-eual7p8Pqb8pcDHl-140">
          <mxGeometry x="630" y="40" width="110" height="30" as="geometry" />
        </mxCell>
        <mxCell id="xKF-eual7p8Pqb8pcDHl-23" style="edgeStyle=orthogonalEdgeStyle;rounded=0;orthogonalLoop=1;jettySize=auto;html=1;exitX=0;exitY=0.75;exitDx=0;exitDy=0;entryX=0;entryY=0.5;entryDx=0;entryDy=0;strokeColor=#666666;" edge="1" parent="xKF-eual7p8Pqb8pcDHl-140" source="xKF-eual7p8Pqb8pcDHl-9" target="xKF-eual7p8Pqb8pcDHl-20">
          <mxGeometry relative="1" as="geometry">
            <Array as="points">
              <mxPoint x="180" y="90" />
              <mxPoint x="200" y="90" />
              <mxPoint x="200" y="270" />
            </Array>
          </mxGeometry>
        </mxCell>
        <mxCell id="xKF-eual7p8Pqb8pcDHl-24" style="edgeStyle=orthogonalEdgeStyle;rounded=0;orthogonalLoop=1;jettySize=auto;html=1;exitX=0;exitY=0.5;exitDx=0;exitDy=0;entryX=0;entryY=0.5;entryDx=0;entryDy=0;strokeColor=#666666;" edge="1" parent="xKF-eual7p8Pqb8pcDHl-140" source="xKF-eual7p8Pqb8pcDHl-9" target="xKF-eual7p8Pqb8pcDHl-19">
          <mxGeometry relative="1" as="geometry">
            <Array as="points">
              <mxPoint x="180" y="80" />
              <mxPoint x="200" y="80" />
              <mxPoint x="200" y="210" />
            </Array>
          </mxGeometry>
        </mxCell>
        <mxCell id="xKF-eual7p8Pqb8pcDHl-9" value="Extension builder" style="rounded=1;whiteSpace=wrap;html=1;strokeColor=#666666;" vertex="1" parent="xKF-eual7p8Pqb8pcDHl-140">
          <mxGeometry x="180" y="70" width="230" height="40" as="geometry" />
        </mxCell>
        <mxCell id="xKF-eual7p8Pqb8pcDHl-14" style="edgeStyle=orthogonalEdgeStyle;rounded=0;orthogonalLoop=1;jettySize=auto;html=1;exitX=0.9;exitY=0.5;exitDx=0;exitDy=0;exitPerimeter=0;entryX=-0.001;entryY=0.549;entryDx=0;entryDy=0;strokeColor=#666666;entryPerimeter=0;" edge="1" parent="xKF-eual7p8Pqb8pcDHl-140" source="xKF-eual7p8Pqb8pcDHl-13" target="xKF-eual7p8Pqb8pcDHl-16">
          <mxGeometry relative="1" as="geometry" />
        </mxCell>
        <mxCell id="xKF-eual7p8Pqb8pcDHl-13" value="" style="shape=actor;whiteSpace=wrap;html=1;strokeColor=none;fillColor=#0A6EC7;" vertex="1" parent="xKF-eual7p8Pqb8pcDHl-140">
          <mxGeometry x="20" y="160" width="40" height="50" as="geometry" />
        </mxCell>
        <mxCell id="xKF-eual7p8Pqb8pcDHl-17" value="Kyma CLI" style="text;html=1;align=center;verticalAlign=middle;resizable=0;points=[];autosize=1;strokeColor=none;fillColor=none;fontStyle=1;fontSize=15;" vertex="1" parent="xKF-eual7p8Pqb8pcDHl-140">
          <mxGeometry x="250" y="30" width="90" height="30" as="geometry" />
        </mxCell>
        <mxCell id="xKF-eual7p8Pqb8pcDHl-19" value="Serverless&amp;nbsp;Extension" style="rounded=1;whiteSpace=wrap;html=1;strokeColor=#666666;" vertex="1" parent="xKF-eual7p8Pqb8pcDHl-140">
          <mxGeometry x="234" y="190" width="180" height="40" as="geometry" />
        </mxCell>
        <mxCell id="xKF-eual7p8Pqb8pcDHl-20" value="Module Z Extension" style="rounded=1;whiteSpace=wrap;html=1;strokeColor=#666666;" vertex="1" parent="xKF-eual7p8Pqb8pcDHl-140">
          <mxGeometry x="234" y="250" width="180" height="40" as="geometry" />
        </mxCell>
        <mxCell id="xKF-eual7p8Pqb8pcDHl-26" value="1" style="ellipse;whiteSpace=wrap;html=1;aspect=fixed;strokeColor=none;fillColor=#0A6EC7;fontColor=#FFFFFF;labelBackgroundColor=none;" vertex="1" parent="xKF-eual7p8Pqb8pcDHl-140">
          <mxGeometry x="90" y="155" width="20" height="20" as="geometry" />
        </mxCell>
        <mxCell id="xKF-eual7p8Pqb8pcDHl-27" value="2" style="ellipse;whiteSpace=wrap;html=1;aspect=fixed;strokeColor=none;fillColor=#0A6EC7;fontColor=#FFFFFF;labelBackgroundColor=none;" vertex="1" parent="xKF-eual7p8Pqb8pcDHl-140">
          <mxGeometry x="470" y="60" width="20" height="20" as="geometry" />
        </mxCell>
        <mxCell id="xKF-eual7p8Pqb8pcDHl-28" value="3" style="ellipse;whiteSpace=wrap;html=1;aspect=fixed;strokeColor=none;fillColor=#0A6EC7;fontColor=#FFFFFF;labelBackgroundColor=none;" vertex="1" parent="xKF-eual7p8Pqb8pcDHl-140">
          <mxGeometry x="210" y="175" width="20" height="20" as="geometry" />
        </mxCell>
        <mxCell id="xKF-eual7p8Pqb8pcDHl-60" value="Extension Commands" style="text;html=1;align=center;verticalAlign=middle;resizable=0;points=[];autosize=1;strokeColor=none;fillColor=none;fontStyle=1;fontSize=15;" vertex="1" parent="xKF-eual7p8Pqb8pcDHl-140">
          <mxGeometry x="210" y="140" width="170" height="30" as="geometry" />
        </mxCell>
        <mxCell id="xKF-eual7p8Pqb8pcDHl-66" value="4" style="ellipse;whiteSpace=wrap;html=1;aspect=fixed;strokeColor=none;fillColor=#0A6EC7;fontColor=#FFFFFF;labelBackgroundColor=none;" vertex="1" parent="xKF-eual7p8Pqb8pcDHl-140">
          <mxGeometry x="480" y="270" width="20" height="20" as="geometry" />
        </mxCell>
        <mxCell id="xKF-eual7p8Pqb8pcDHl-132" value="" style="rounded=1;whiteSpace=wrap;html=1;fillColor=#DEF2DD;strokeColor=none;" vertex="1" parent="xKF-eual7p8Pqb8pcDHl-140">
          <mxGeometry x="530" y="100" width="140" height="200" as="geometry" />
        </mxCell>
        <mxCell id="xKF-eual7p8Pqb8pcDHl-6" value="Serverless&lt;div&gt;Extension ConfigMap&lt;/div&gt;" style="rounded=1;whiteSpace=wrap;html=1;strokeColor=#666666;" vertex="1" parent="xKF-eual7p8Pqb8pcDHl-140">
          <mxGeometry x="540" y="120" width="120" height="60" as="geometry" />
        </mxCell>
        <mxCell id="xKF-eual7p8Pqb8pcDHl-63" value="Function Resource" style="rounded=1;whiteSpace=wrap;html=1;strokeColor=#666666;" vertex="1" parent="xKF-eual7p8Pqb8pcDHl-140">
          <mxGeometry x="540" y="220" width="120" height="60" as="geometry" />
        </mxCell>
        <mxCell id="xKF-eual7p8Pqb8pcDHl-12" style="edgeStyle=orthogonalEdgeStyle;rounded=0;orthogonalLoop=1;jettySize=auto;html=1;exitX=1;exitY=0.5;exitDx=0;exitDy=0;entryX=0.5;entryY=0;entryDx=0;entryDy=0;strokeColor=#666666;dashed=1;" edge="1" parent="xKF-eual7p8Pqb8pcDHl-140" source="xKF-eual7p8Pqb8pcDHl-9" target="xKF-eual7p8Pqb8pcDHl-6">
          <mxGeometry relative="1" as="geometry">
            <Array as="points">
              <mxPoint x="600" y="90" />
            </Array>
          </mxGeometry>
        </mxCell>
        <mxCell id="xKF-eual7p8Pqb8pcDHl-65" style="edgeStyle=orthogonalEdgeStyle;rounded=0;orthogonalLoop=1;jettySize=auto;html=1;exitX=1;exitY=0.5;exitDx=0;exitDy=0;entryX=0;entryY=0.5;entryDx=0;entryDy=0;strokeColor=#666666;" edge="1" parent="xKF-eual7p8Pqb8pcDHl-140" source="xKF-eual7p8Pqb8pcDHl-19" target="xKF-eual7p8Pqb8pcDHl-63">
          <mxGeometry relative="1" as="geometry" />
        </mxCell>
        <mxCell id="xKF-eual7p8Pqb8pcDHl-133" value="Serverless" style="text;html=1;align=center;verticalAlign=middle;resizable=0;points=[];autosize=1;strokeColor=none;fillColor=none;fontStyle=1;fontSize=15;" vertex="1" parent="xKF-eual7p8Pqb8pcDHl-140">
          <mxGeometry x="555" y="185" width="90" height="30" as="geometry" />
        </mxCell>
        <mxCell id="xKF-eual7p8Pqb8pcDHl-134" value="" style="rounded=1;whiteSpace=wrap;html=1;fillColor=#DEF2DD;strokeColor=none;" vertex="1" parent="xKF-eual7p8Pqb8pcDHl-140">
          <mxGeometry x="697" y="100" width="140" height="200" as="geometry" />
        </mxCell>
        <mxCell id="xKF-eual7p8Pqb8pcDHl-8" value="Module Z&lt;div&gt;Extension ConfigMap&lt;/div&gt;" style="rounded=1;whiteSpace=wrap;html=1;strokeColor=#666666;dashed=1;" vertex="1" parent="xKF-eual7p8Pqb8pcDHl-140">
          <mxGeometry x="707" y="120" width="120" height="60" as="geometry" />
        </mxCell>
        <mxCell id="xKF-eual7p8Pqb8pcDHl-11" style="edgeStyle=orthogonalEdgeStyle;rounded=0;orthogonalLoop=1;jettySize=auto;html=1;exitX=1;exitY=0.5;exitDx=0;exitDy=0;entryX=0.5;entryY=0;entryDx=0;entryDy=0;strokeColor=#666666;dashed=1;" edge="1" parent="xKF-eual7p8Pqb8pcDHl-140" source="xKF-eual7p8Pqb8pcDHl-9" target="xKF-eual7p8Pqb8pcDHl-8">
          <mxGeometry relative="1" as="geometry">
            <Array as="points">
              <mxPoint x="767" y="90" />
            </Array>
          </mxGeometry>
        </mxCell>
        <mxCell id="xKF-eual7p8Pqb8pcDHl-135" value="Module-Z Resource" style="rounded=1;whiteSpace=wrap;html=1;strokeColor=#666666;dashed=1;" vertex="1" parent="xKF-eual7p8Pqb8pcDHl-140">
          <mxGeometry x="707" y="220" width="120" height="60" as="geometry" />
        </mxCell>
        <mxCell id="xKF-eual7p8Pqb8pcDHl-136" style="edgeStyle=orthogonalEdgeStyle;rounded=0;orthogonalLoop=1;jettySize=auto;html=1;exitX=1;exitY=0.5;exitDx=0;exitDy=0;entryX=0.5;entryY=1;entryDx=0;entryDy=0;strokeColor=#666666;" edge="1" parent="xKF-eual7p8Pqb8pcDHl-140" source="xKF-eual7p8Pqb8pcDHl-20" target="xKF-eual7p8Pqb8pcDHl-135">
          <mxGeometry relative="1" as="geometry">
            <Array as="points">
              <mxPoint x="460" y="270" />
              <mxPoint x="460" y="310" />
              <mxPoint x="767" y="310" />
            </Array>
          </mxGeometry>
        </mxCell>
        <mxCell id="xKF-eual7p8Pqb8pcDHl-138" value="Module Z" style="text;html=1;align=center;verticalAlign=middle;resizable=0;points=[];autosize=1;strokeColor=none;fillColor=none;fontStyle=1;fontSize=15;" vertex="1" parent="xKF-eual7p8Pqb8pcDHl-140">
          <mxGeometry x="722" y="185" width="90" height="30" as="geometry" />
        </mxCell>
      </root>
    </mxGraphModel>
  </diagram>
</mxfile>
